<svg width="982" height="778" viewBox="0 0 982 778" fill="none" xmlns="http://www.w3.org/2000/svg">
<path d="M645.519 146.323C666.901 158.227 689.933 165.258 713.918 169.46C719.967 170.52 726.04 171.443 732.088 172.508C733.546 172.765 734.95 173.333 736.379 173.758C736.345 174.252 736.311 174.746 736.277 175.24C729.512 176.349 722.753 177.49 715.982 178.562C676.584 184.803 641.06 199.364 612.546 228.082C590.603 250.182 576.714 277.128 568.515 306.931C564.96 319.85 562.941 333.191 560.19 346.333C559.961 347.427 559.472 348.466 558.367 349.671C553.012 318.879 546.224 288.636 530.631 260.909C535.695 255.378 540.536 250.289 545.302 245.131C549.134 240.983 552.975 236.836 556.634 232.538C563.943 223.952 569.082 213.414 579.326 207.473C580.008 207.078 580.744 206.46 581.044 205.767C584.436 197.943 591.534 193.312 597.684 188.415C601.852 185.097 605.498 181.696 608.935 177.718C611.583 174.654 614.751 171.584 618.34 169.933C621.237 168.6 623.245 167.645 624.617 164.477C626.509 160.11 628.99 156.228 635.21 156.365C640.187 156.475 644.882 151.037 645.519 146.323Z" fill="#FF8493"/>
<path d="M564.086 20.5223C568.31 43.0765 574.921 64.8615 585.803 85.1418C589.114 91.3134 593.464 96.9277 597.045 103.154C592.372 103.806 587.77 103.355 583.667 104.578C578.13 106.229 573.76 109.568 569.466 114.172C561.797 122.395 552.438 129.029 547.248 139.457C547.105 139.745 546.885 140.051 546.619 140.215C540.905 143.753 535.201 147.292 532.033 153.609C531.902 153.872 531.472 153.967 531.245 154.202C523.6 162.12 515.931 170.013 508.341 177.984C505.029 181.462 502.067 185.292 498.593 188.59C496.661 190.424 493.569 191.085 491.771 192.998C488.911 196.041 486.679 199.677 484.216 203.087C483.108 204.621 482.084 206.216 481.021 207.783C479.543 206.968 478.066 206.152 476.285 204.778C475.395 204.01 474.808 203.8 474.222 203.59C474.222 203.59 474.284 203.545 474.165 203.343C473.746 202.972 473.447 202.805 473.147 202.638C473.147 202.638 473.247 202.646 473.097 202.398C472.352 201.988 471.757 201.826 471.162 201.664C471.162 201.664 471.245 201.62 471.102 201.379C470.371 200.964 469.783 200.789 469.195 200.615C469.195 200.615 469.271 200.571 469.158 200.367C468.74 199.999 468.435 199.835 468.129 199.672C468.129 199.672 468.224 199.683 468.08 199.422C467.34 199.013 466.743 198.864 466.146 198.716C466.146 198.716 466.294 198.648 466.142 198.358C460.262 195.148 454.558 192.177 448.794 189.327C444.406 187.158 443.238 183.467 446.645 179.73C454.371 171.255 462.585 163.225 470.348 154.781C473.659 151.18 479.102 148.717 478.163 142.369C478.163 142.369 478.294 142.437 478.597 142.465C479.66 141.786 480.419 141.079 481.178 140.371C481.178 140.371 481.284 140.463 481.598 140.478C482.683 139.771 483.454 139.049 484.225 138.327C484.305 138.048 484.464 137.825 485.151 137.493C485.834 137.059 486.067 136.792 486.3 136.524C486.72 136.232 487.14 135.941 488.193 135.573C489.612 134.733 490.398 133.968 491.184 133.203C500.779 123.249 510.465 113.38 519.911 103.285C522.48 100.539 524.324 97.1156 527.039 93.6943C527.783 93.0585 527.989 92.7315 528.195 92.4044C528.195 92.4044 528.126 92.474 528.452 92.3463C529.255 90.9554 529.734 89.6922 530.212 88.4291C530.212 88.4291 530.259 88.5066 530.463 88.3985C530.83 87.9846 530.992 87.6789 531.154 87.3731C531.154 87.3731 531.108 87.4496 531.435 87.3368C534.249 81.629 536.735 76.0338 539.221 70.4387C539.221 70.4387 539.247 70.5194 539.54 70.3822C540.419 69.4724 541.265 68.7855 541.553 67.9141C545.156 57.0154 548.708 46.0993 552.152 35.1496C552.375 34.4399 551.608 33.4188 551.302 32.5425C551.33 32.08 551.359 31.6174 551.855 30.7426C552.99 28.7041 553.922 27.1336 554.28 25.4418C555.821 18.1686 557.194 10.8598 558.629 3.56396C559.584 5.25141 559.753 7.04256 560.333 8.68873C561.04 10.6952 562.094 12.5798 562.997 14.5171C563.103 14.9633 563.209 15.4095 563.033 16.4142C563.195 18.1558 563.641 19.339 564.086 20.5223Z" fill="#FF8275"/>
<path d="M645.495 146.334C644.882 151.037 640.187 156.475 635.21 156.365C628.99 156.227 626.509 160.11 624.617 164.477C623.245 167.644 621.237 168.6 618.34 169.933C614.751 171.584 611.583 174.654 608.935 177.718C605.498 181.696 601.852 185.097 597.684 188.415C591.534 193.312 584.436 197.943 581.044 205.767C580.744 206.46 580.008 207.078 579.326 207.473C569.082 213.414 563.943 223.952 556.634 232.538C552.975 236.836 549.134 240.983 545.302 245.131C540.536 250.289 535.695 255.378 530.535 260.572C530.184 260.646 530.205 260.622 530.212 260.311C529.853 259.542 529.488 259.082 529.123 258.623C529.123 258.623 529.251 258.586 529.24 258.26C528.546 257.161 527.863 256.389 527.181 255.618C527.181 255.618 527.246 255.534 527.22 255.249C526.754 254.531 526.314 254.098 525.875 253.665C525.607 253.556 525.421 253.366 525.263 252.557C524.777 251.564 524.347 251.111 523.917 250.657C523.643 250.558 523.446 250.376 523.274 249.587C522.844 248.599 522.468 248.134 522.092 247.669C522.092 247.669 522.148 247.591 522.068 247.37C521.689 246.931 521.389 246.712 521.088 246.494C518.272 243.075 515.456 239.656 512.452 235.628C511.891 234.557 511.517 234.094 511.143 233.631C511.143 233.631 511.222 233.564 511.129 233.365C510.744 232.989 510.452 232.812 510.161 232.635C510.161 232.635 510.176 232.719 510.177 232.366C507.881 228.856 505.583 225.699 503.6 222.404C506.45 219.759 509.046 217.309 511.509 214.732C519.403 206.471 527.23 198.146 535.12 189.882C538.156 186.703 540.982 183.198 544.478 180.618C547.605 178.31 548.169 171.632 554.484 174.257C554.767 174.375 555.601 173.586 555.948 173.066C560.151 166.766 563.872 160.07 571.094 156.467C571.838 156.096 571.825 154.357 572.342 153.344C572.924 152.203 573.485 150.88 574.443 150.131C578.676 146.824 583.028 143.666 587.376 140.509C593.463 136.091 599.488 131.577 605.738 127.4C608.414 125.612 611.59 124.571 614.538 123.19C614.538 123.19 614.552 123.307 614.618 123.627C615.281 124.123 615.877 124.299 616.473 124.476C617.344 125.235 618.216 125.994 619.311 127.278C619.829 128.026 620.124 128.248 620.42 128.47C620.42 128.47 620.343 128.506 620.502 128.737C621.044 129.122 621.426 129.276 621.809 129.43C628.886 134.515 635.963 139.601 643.339 145.272C644.237 146.032 644.835 146.207 645.433 146.382C645.433 146.382 645.471 146.345 645.495 146.334Z" fill="#FF8389"/>
<path d="M404.985 455.991C426.25 426.53 473.289 425.025 494.806 453.557C492.886 455.861 491.339 457.743 489.725 459.565C487.501 462.076 484.891 464.317 483.047 467.076C479.397 472.533 476.006 478.182 472.852 483.939C471.988 485.517 472.126 487.771 472.19 489.702C472.294 492.829 472.954 495.944 472.965 499.065C473.03 517.524 472.943 535.984 473.002 554.444C473.01 556.725 473.584 559.005 473.896 561.286C473.246 559.651 472.048 558.023 472.03 556.381C471.843 539.723 472.015 523.06 471.72 506.405C471.597 499.476 471.161 492.452 469.856 485.666C467.695 474.43 460.659 467.502 449.2 465.493C438.259 463.574 429.136 466.597 422.298 475.634C417.411 482.093 415.04 489.363 415.046 497.463C415.062 516.955 415.059 536.447 414.945 555.938C414.934 557.796 414.085 559.649 413.171 561.512C412.39 561.391 412.172 561.513 412.061 561.884C403.664 561.929 395.266 561.975 386.142 561.698C383.917 561.271 382.418 561.166 380.919 561.061C380.919 561.061 380.993 561.003 380.99 560.567C380.99 538.422 380.994 516.712 381.372 494.996C382.983 494.286 384.762 493.89 385.365 492.827C388.939 486.523 392.007 479.925 395.707 473.701C398.716 468.639 402.373 463.963 405.743 459.116C406.242 459.262 406.741 459.407 407.24 459.553C406.489 458.366 405.737 457.179 404.985 455.991Z" fill="#FD879C"/>
<path d="M642.536 702.049C656.368 685.725 664.994 667.015 668.175 645.846C668.816 641.581 669.333 637.27 669.486 632.966C669.616 629.319 671.141 627.975 674.709 628.027C683.695 628.158 692.689 628.254 701.67 628.007C706.201 627.882 707.865 629.471 707.842 634.052C707.692 662.941 699.353 689.329 683.058 713C662.722 742.541 634.77 761.805 600.171 771.653C605.385 769.039 610.909 766.789 615.834 764.783C616.088 762.417 615.954 760.58 616.519 758.992C618.103 754.539 619.913 750.163 621.751 745.807C624.222 739.949 626.625 734.052 629.389 728.332C631.853 723.232 634.874 718.399 637.322 713.291C637.572 712.77 635.576 711.172 634.623 710.074C636.448 708.165 638.273 706.256 640.396 704.565C640.922 705.775 641.149 706.769 641.641 708.918C643.41 706.362 644.531 704.743 645.959 702.679C644.361 702.385 643.449 702.217 642.536 702.049Z" fill="#0AC8E8"/>
<path d="M94.9862 561.901C65.3384 561.954 35.6902 561.939 6.04316 562.126C0.965129 562.158 0.989009 559.208 0.99116 555.605C1.01922 508.799 0.997828 461.992 0.990351 415.185C0.988993 406.69 1.11877 398.192 0.944407 389.701C0.855586 385.374 2.58413 383.756 6.88635 383.878C14.5425 384.095 22.2189 384.171 29.868 383.852C34.6929 383.652 36.2085 385.317 36.1907 390.164C36.0282 434.305 36.0849 478.447 36.0776 522.588C36.0772 524.737 36.0776 526.885 36.0776 530.065C61.1353 530.065 85.8683 530.065 110.45 530.46C86.4951 530.906 62.692 530.913 38.8898 531.06C35.7436 531.08 34.9185 529.853 34.9472 526.927C35.0596 515.442 34.9508 503.955 35.0137 492.469C35.0357 488.461 33.3478 485.33 30.9503 481.58C30.0716 483.977 29.8511 485.569 29.0136 486.707C22.2273 495.924 15.3821 505.101 8.39045 514.163C7.45533 515.375 5.60064 515.878 3.0048 517.388C3.0048 528.447 3.22499 541.062 2.89393 553.662C2.76557 558.548 3.8444 560.197 9.13293 560.138C35.9311 559.839 62.7345 559.965 89.5354 560.084C91.355 560.092 93.1694 561.268 94.9862 561.901Z" fill="#FF8368"/>
<path d="M614.489 122.87C611.59 124.571 608.414 125.612 605.738 127.4C599.488 131.577 593.463 136.091 587.376 140.509C583.028 143.666 578.676 146.824 574.443 150.131C573.485 150.88 572.924 152.203 572.342 153.344C571.825 154.357 571.838 156.096 571.094 156.467C563.872 160.07 560.151 166.766 555.948 173.066C555.601 173.586 554.767 174.375 554.484 174.257C548.169 171.632 547.605 178.31 544.478 180.618C540.982 183.198 538.156 186.703 535.12 189.882C527.23 198.146 519.403 206.471 511.509 214.732C509.046 217.309 506.45 219.759 503.2 222.407C501.683 222.626 500.883 222.705 500.082 222.785C500.082 222.785 500.091 222.694 500.059 222.438C499.73 222.009 499.432 221.835 499.134 221.661C499.134 221.661 499.225 221.617 499.084 221.377C498.364 220.948 497.784 220.76 497.204 220.571C496.627 220.137 496.05 219.703 495.333 218.67C494.494 217.624 493.795 217.176 493.096 216.728C493.096 216.728 493.126 216.65 493.08 216.417C492.736 216.009 492.438 215.835 492.14 215.66C492.14 215.66 492.24 215.638 492.092 215.39C491.36 214.966 490.777 214.79 490.193 214.614C490.193 214.614 490.29 214.584 490.246 214.25C488.867 213.148 487.531 212.38 486.195 211.613C486.195 211.613 486.288 211.574 486.24 211.268C485.491 210.571 484.789 210.181 484.088 209.791C484.088 209.791 484.101 209.707 484.02 209.424C483.35 208.973 482.762 208.806 482.174 208.639C482.174 208.639 482.248 208.58 482.15 208.376C481.753 207.995 481.455 207.819 481.157 207.642C481.157 207.642 481.12 207.742 481.07 207.762C482.083 206.216 483.108 204.621 484.216 203.087C486.679 199.677 488.911 196.041 491.771 192.998C493.569 191.085 496.661 190.424 498.593 188.59C502.067 185.292 505.029 181.462 508.341 177.984C515.931 170.013 523.6 162.12 531.245 154.202C531.472 153.967 531.902 153.871 532.033 153.609C535.201 147.291 540.905 143.753 546.619 140.215C546.885 140.05 547.105 139.745 547.248 139.457C552.438 129.029 561.797 122.395 569.466 114.172C573.76 109.568 578.13 106.229 583.667 104.578C587.77 103.355 592.372 103.806 597.174 103.479C597.886 103.524 598.101 103.694 598.287 104.551C599.096 105.905 599.861 106.667 600.627 107.429C605.231 112.47 609.835 117.51 614.489 122.87Z" fill="#FF8283"/>
<path d="M800.439 480.995C796.206 490.052 795.032 499.605 795.165 509.532C795.377 525.357 795.038 541.188 795.145 557.016C795.171 560.862 793.965 562.428 790.002 562.332C782.176 562.142 774.334 562.085 766.513 562.376C761.707 562.555 761.076 560.047 761.089 556.173C761.168 533.346 761.12 510.519 761.129 487.692C761.134 472.697 761.287 457.7 761.107 442.707C761.05 438.017 762.572 436.027 767.435 436.219C774.255 436.489 781.096 436.359 787.925 436.229C792.181 436.148 794.607 437.4 794.124 442.273C793.784 445.703 794.059 449.195 794.059 454.262C797.707 450.63 800.412 447.938 803.694 445.262C805.937 449.738 804.952 453.309 800.961 456.124C800.029 456.782 799.651 458.224 799.017 459.305C797.428 462.018 795.79 464.702 794.267 467.452C793.137 469.492 791.661 471.518 791.221 473.726C790.469 477.505 790.442 481.426 790.045 485.28C789.757 488.066 789.025 490.856 789.151 493.614C789.218 495.089 790.683 496.5 791.093 497.208C794.415 491.445 797.427 486.22 800.439 480.995Z" fill="#1CC6E8"/>
<path d="M885.02 510.961C888.667 516.883 892.314 522.806 896.017 529.402C894.003 536.006 888.058 536.082 883.568 538.363C884.904 538.847 886.239 539.332 888.705 540.225C880.431 541.101 880.463 541.118 876.507 548.569C876.088 549.358 875.026 549.805 874.262 550.41C857.984 536.95 851.623 519.003 851.585 498.58C851.557 483.678 855.509 469.752 864.741 457.706C874.545 444.913 887.639 437.413 903.945 434.36C906.775 434.717 909.013 435.195 911.041 434.74C915.301 433.783 915.837 435.749 914.056 438.63C911.307 443.077 908.786 448.309 904.726 451.147C898.847 455.256 898.574 459.366 901.078 465.125C893.584 470.865 887.318 477.084 886.328 487.117C896.505 487.641 906.446 487.748 916.38 488.077C917.898 488.128 919.381 489.207 920.881 489.81C919.717 491.215 918.832 493.189 917.338 493.921C911.946 496.563 907.624 499.631 909.568 507C902.937 507 896.805 506.892 890.682 507.075C889.111 507.122 887.568 508.089 886.012 508.634C885.702 508.904 885.392 509.174 884.794 509.86C884.463 510.636 884.42 510.996 884.377 511.355C884.591 511.224 884.806 511.092 885.02 510.961Z" fill="#0AC8E8"/>
<path d="M95.4493 561.96C93.1694 561.268 91.355 560.092 89.5354 560.084C62.7345 559.965 35.9311 559.839 9.13298 560.138C3.84445 560.197 2.76562 558.548 2.89398 553.662C3.22503 541.062 3.00485 528.448 3.00485 517.388C5.60069 515.878 7.45538 515.375 8.3905 514.163C15.3822 505.101 22.2273 495.925 29.0137 486.707C29.8511 485.569 30.0716 483.977 30.9504 481.58C33.3478 485.33 35.0357 488.462 35.0138 492.469C34.9508 503.955 35.0597 515.442 34.9472 526.927C34.9186 529.853 35.7437 531.08 38.8899 531.06C62.6921 530.914 86.4951 530.906 110.778 530.749C111.258 530.643 111.255 530.715 111.277 531.017C111.608 531.467 111.917 531.616 112.227 531.764C112.227 531.764 112.242 531.825 112.157 532.329C112.084 542.264 112.096 551.695 112.107 561.127C112.107 561.127 111.989 561.04 111.71 561.04C110.629 561.338 109.827 561.637 109.024 561.936C104.654 561.963 100.283 561.991 95.4493 561.96Z" fill="#FF8372"/>
<path d="M886.474 508.714C887.568 508.089 889.111 507.122 890.682 507.075C896.805 506.892 902.937 507 909.568 507C907.624 499.631 911.946 496.563 917.338 493.921C918.832 493.189 919.717 491.215 920.881 489.81C919.381 489.207 917.898 488.128 916.38 488.077C906.446 487.748 896.505 487.641 886.791 487.098C907.99 486.735 928.965 486.735 950.346 486.735C942.907 464.025 921.078 454.811 901.308 464.918C898.574 459.366 898.847 455.256 904.726 451.147C908.786 448.31 911.307 443.077 914.056 438.63C915.837 435.749 915.301 433.783 911.041 434.74C909.013 435.196 906.775 434.718 904.34 434.408C917.151 431.73 930.096 432.59 942.528 437.232C963.328 444.999 975.338 460.579 979.867 481.934C981.33 488.832 981.426 496.032 981.937 503.11C982.046 504.617 981.24 506.19 980.272 507.943C979.387 508.257 979.163 508.451 979.017 508.736C978.25 508.765 977.483 508.795 976.185 508.593C975.116 508.481 974.579 508.602 974.043 508.723C945.007 508.747 915.971 508.77 886.474 508.714Z" fill="#03C8E8"/>
<path d="M575.827 433.995C575.892 475.099 575.931 516.204 576.064 557.308C576.077 561.108 574.382 562.185 570.874 562.118C563.055 561.971 555.223 561.86 547.413 562.161C542.909 562.335 541.77 560.576 541.781 556.332C541.868 522.881 541.761 489.43 542.073 455.763C542.432 465.857 542.432 476.167 542.432 486.477C543.116 486.604 543.8 486.73 544.485 486.856C550.417 478.126 557.413 470.151 561.223 459.955C564.115 452.216 567.522 444.653 571.077 437.191C571.783 435.708 574.199 435.039 575.827 433.995Z" fill="#AF9FCB"/>
<path d="M206.011 559.95C206.011 559.95 205.637 560.062 205.063 560.049C203.005 560.736 201.52 561.436 200.035 562.135C200.035 562.135 200.028 562.053 199.623 562.039C190.255 562.026 181.293 562.026 172.427 562.026C172.968 559.535 174.134 557.428 173.639 555.839C172.168 551.117 172.753 548.055 178.252 547.304C178.866 547.22 179.408 546.669 180.002 546.373C185.11 543.824 190.132 541.074 195.364 538.812C199.261 537.127 202.421 534.98 203.894 530.853C203.894 530.853 203.954 530.917 204.161 530.85C204.58 530.517 204.792 530.251 205.003 529.985C205.003 529.985 205.327 529.88 205.941 529.921C210.864 530.727 211.387 528.236 210.918 524.892C210.918 524.892 210.963 524.985 211.284 524.936C212.048 523.894 212.493 522.901 212.937 521.908C212.937 521.908 212.981 521.977 213.184 521.87C213.569 521.472 213.75 521.181 213.932 520.89C213.932 520.89 213.89 520.964 214.205 520.827C216.035 515.468 217.55 510.247 219.405 504.977C222.318 502.692 224.98 500.547 227.443 498.195C231.087 494.714 234.539 491.032 238.174 487.541C240.245 485.552 242.609 483.867 244.671 481.869C246.565 480.034 248.233 477.964 250.001 476.426C250.004 478.568 250.006 480.281 250.004 482.464C250.002 506.621 249.968 530.31 250.086 553.997C250.094 555.659 251.226 557.315 251.836 558.973C251.46 559.618 251.085 560.263 249.929 560.965C239.4 561.043 229.652 561.065 219.904 561.087C219.904 561.087 220 561.003 219.987 560.589C219.591 556.798 219.209 553.421 218.826 550.045C215.43 552.959 212.034 555.874 208.15 558.662C207.112 559.007 206.562 559.479 206.011 559.95Z" fill="#FF8283"/>
<path d="M320.014 450.874C332.526 436.498 357.308 426.985 381.925 437.639C381.553 439.503 381.141 441.205 380.061 442.002C378.258 443.334 375.427 443.581 374.087 445.175C369.234 450.951 364.821 457.098 360.241 463.105C360.686 463.356 361.131 463.607 361.576 463.858C362.39 464.946 363.205 466.034 364.019 467.122C362.593 466.736 361.168 466.35 359.499 465.53C353.244 465.083 347.207 464.764 341.235 465.242C339.411 465.388 337.763 467.725 336.034 469.058C336.034 469.058 336.005 468.999 335.659 469.015C334.569 469.76 333.824 470.489 333.08 471.219C332.627 471.762 332.174 472.305 331.124 472.978C330.087 473.807 329.646 474.506 329.206 475.206C329.206 475.206 329.139 475.01 328.991 475.101C328.74 475.269 328.636 475.348 328.532 475.426C328.687 475.615 328.841 475.804 328.996 475.994C327.851 478.217 326.706 480.441 325.142 482.724C323.817 484.189 322.909 485.595 321.647 487.037C319.517 488.242 317.187 489.025 316.064 490.645C310.578 498.556 305.268 506.599 300.197 514.783C297.633 518.921 295.901 523.57 293.416 527.765C292.036 530.093 289.88 531.96 288.049 533.564C288.019 515.629 287.995 498.166 288.04 480.703C288.044 479.282 288.009 477.352 288.847 476.527C293.928 471.531 299.292 466.824 304.475 461.928C305.519 460.942 306.136 459.517 307.044 458.369C309.688 455.027 312.379 451.722 315.311 448.079C318.193 452.753 318.193 452.753 320.014 450.874Z" fill="#FF8283"/>
<path d="M609.489 525.079C598.344 496.259 605.704 456.757 638.528 440.025C639.546 439.506 640.676 439.21 642.537 438.874C647.987 437.843 652.656 436.748 657.324 435.652C657.746 436.138 658.167 436.624 658.589 437.109C656.006 443.953 653.342 450.767 650.868 457.65C649.137 462.466 647.664 467.374 646.012 472.432C645.803 472.869 645.592 473.022 645.033 473.153C644.52 473.514 644.286 473.804 644.094 474.067C644.137 474.041 644.188 474.127 643.997 474.15C643.707 474.251 643.517 474.385 643.525 474.399C643.647 474.6 643.795 474.784 643.813 475.292C642.159 479.332 640.63 483.053 639.253 487.077C640.274 487.584 641.143 487.787 642.018 488.391C643.818 496.16 640.673 502.552 638.018 509.04C638.018 509.04 637.996 509.003 637.676 509.057C636.985 510.995 636.865 512.974 636.188 514.74C634.967 517.924 633.646 521.115 631.947 524.062C628.304 530.381 625.284 537.443 616.908 539.061C616.908 539.061 616.982 539.004 616.976 538.68C616.285 537.585 615.601 536.816 614.916 536.047C614.916 536.047 614.984 536.002 614.957 535.725C614.577 534.979 614.223 534.51 613.87 534.042C613.87 534.042 613.958 534.029 613.96 533.695C612.929 531.592 611.897 529.824 610.865 528.056C610.865 528.056 610.937 528.001 610.947 527.668C610.467 526.583 609.978 525.831 609.489 525.079Z" fill="#79ABDB"/>
<path d="M575.883 433.53C574.199 435.039 571.783 435.708 571.077 437.191C567.523 444.653 564.115 452.216 561.223 459.955C557.413 470.151 550.417 478.126 544.485 486.856C543.8 486.73 543.116 486.603 542.432 486.477C542.432 476.167 542.432 465.857 542.085 455.297C541.537 453.76 541.163 452.472 541.16 451.183C541.125 430.905 541.123 410.627 541.149 390.349C541.157 384.357 541.611 383.96 547.782 383.955C555.427 383.949 563.076 384.079 570.718 383.912C574.575 383.828 576.056 385.304 576.02 389.185C575.882 403.81 575.949 418.438 575.883 433.53Z" fill="#D295BC"/>
<path d="M874.376 550.623C875.026 549.805 876.088 549.358 876.507 548.569C880.463 541.118 880.431 541.101 888.705 540.225C886.239 539.331 884.904 538.847 883.568 538.363C888.058 536.082 894.003 536.006 896.158 529.682C907.036 537.748 919.343 538.663 931.967 535.49C936.043 534.465 940.087 531.486 943.051 528.362C946.382 524.85 949.659 523.568 954.367 523.864C960.834 524.272 967.347 523.92 973.841 523.935C979.05 523.946 980.756 526.674 978.014 531.259C967.943 548.103 953.967 560.155 934.278 563.751C916.241 567.045 898.618 565.168 882.248 556.081C880.255 554.975 878.418 553.589 876.134 551.891C875.536 551.214 875.266 551.06 874.949 550.987C874.949 550.987 874.49 550.837 874.376 550.623Z" fill="#03C8E8"/>
<path d="M473.927 561.285C473.584 559.005 473.01 556.725 473.003 554.443C472.943 535.984 473.03 517.524 472.965 499.065C472.954 495.944 472.294 492.829 472.19 489.702C472.126 487.771 471.988 485.517 472.852 483.939C476.006 478.182 479.397 472.533 483.047 467.076C484.891 464.317 487.502 462.076 489.725 459.565C491.339 457.743 492.886 455.861 494.813 453.901C495.163 453.796 495.139 453.89 495.189 454.15C495.517 454.591 495.795 454.772 496.073 454.953C496.073 454.953 496.011 455.001 496.125 455.206C496.521 455.594 496.804 455.777 497.086 455.961C497.086 455.961 497.005 455.986 497.037 456.275C497.436 457.034 497.804 457.503 498.172 457.972C500.464 463.526 504.078 468.922 504.761 474.667C505.995 485.053 505.479 495.647 505.149 506.779C504.845 513.771 502.249 519.001 498.164 523.667C496.758 525.273 495.328 526.9 494.201 528.7C487.425 539.525 480.735 550.402 474.015 561.262C474.015 561.262 473.958 561.284 473.927 561.285Z" fill="#E092B5"/>
<path d="M136.87 542.13C131.312 533.688 130.531 524.011 130.395 514.407C130.05 490.118 130.2 465.821 130.046 441.528C130.021 437.631 131.709 436.151 135.45 436.194C143.27 436.284 151.094 436.351 158.911 436.166C163.527 436.056 164.965 438.113 164.947 442.515C164.857 464.479 164.724 486.449 165.188 508.405C165.3 513.685 167.631 518.919 168.667 524.517C167.54 523.539 166.482 522.307 165.866 520.883C161.978 511.887 163.156 502.346 162.991 492.95C162.958 491.118 162.832 489.288 162.762 487.744C158.033 492.532 153.607 496.987 149.222 501.482C148.433 502.291 147.928 503.389 147.098 504.139C145.578 505.513 143.967 506.803 142.282 507.965C141.688 508.375 132.104 517.818 132.035 518.547C132.004 518.876 131.967 519.224 132.036 519.54C133.256 525.164 134.501 530.783 135.72 536.407C136.132 538.309 136.488 540.222 136.87 542.13ZM157.189 457.814C149.413 460.912 141.636 464.011 132.929 467.48C133.274 471.628 133.744 477.278 134.214 482.928C137.084 481.361 138.248 478.8 140.073 478.176C146.295 476.05 150.639 471.765 155.592 467.757C160.772 463.564 160.513 458.728 160.885 453.221C159.831 454.585 158.776 455.949 157.189 457.814Z" fill="#FF8368"/>
<path d="M664.069 433.108C678.997 431.926 693.132 434.673 705.964 442.467C710.284 445.091 713.844 448.968 717.905 452.891C718.439 453.968 718.819 454.426 719.2 454.883C719.2 454.883 719.112 454.93 719.19 455.144C719.571 455.533 719.875 455.707 720.18 455.881C720.18 455.881 720.153 455.801 720.105 456.185C718.714 459.82 716.404 463.011 716.198 466.333C715.382 479.483 709.932 491.215 705.886 503.395C704.934 506.259 703.374 507.118 700.429 507.056C691.281 506.86 682.126 506.967 672.989 506.587C673.896 504.525 674.554 502.646 675.726 501.175C678.814 497.297 682.082 493.579 681.442 488.035C687.522 488.013 693.133 488.116 698.735 487.936C700.156 487.89 701.549 486.944 702.939 486.07C696.948 467.451 683.41 459.04 664.3 461.247C667.136 460.367 669.821 459.878 672.423 459.405C675.858 451.603 679.248 443.9 682.893 435.619C675.661 434.654 669.865 433.881 664.069 433.108Z" fill="#50B6E3"/>
<path d="M443.245 629.044C444.03 630.698 445.21 632.279 445.534 634.02C447.404 644.064 449.071 654.145 450.496 664.493C449.327 663.318 448.469 661.864 447.93 660.95C442.036 667.825 436.09 674.604 430.332 681.539C426.923 685.646 423.812 690 420.567 694.243C412.607 679.383 408.453 663.406 406.708 646.741C406.293 642.776 405.885 638.769 406.03 634.802C406.108 632.654 407.361 630.548 408.729 628.608C420.664 628.877 431.955 628.96 443.245 629.044Z" fill="#FF8493"/>
<path d="M136.899 542.112C136.488 540.222 136.132 538.309 135.72 536.407C134.501 530.783 133.256 525.164 132.036 519.54C131.967 519.224 132.004 518.876 132.035 518.547C132.104 517.818 141.688 508.375 142.282 507.965C143.967 506.803 145.578 505.513 147.098 504.139C147.928 503.389 148.433 502.291 149.222 501.482C153.607 496.987 158.033 492.532 162.762 487.744C162.832 489.288 162.958 491.118 162.991 492.95C163.156 502.346 161.978 511.887 165.866 520.883C166.482 522.307 167.54 523.539 168.76 524.873C169.126 524.887 169.104 524.923 169.092 525.228C169.455 525.985 169.83 526.437 170.206 526.889C170.206 526.889 170.115 526.921 170.193 527.134C170.573 527.529 170.874 527.709 171.174 527.89C171.174 527.89 171.088 527.929 171.178 528.14C171.569 528.53 171.87 528.708 172.171 528.886C172.171 528.886 172.074 528.918 172.172 529.13C172.575 529.511 172.879 529.679 173.183 529.848C173.183 529.848 173.079 529.833 173.203 530.154C174.588 530.953 175.849 531.431 177.111 531.909C177.111 531.909 177.024 531.931 177.169 532.225C178.555 533.445 179.795 534.372 181.664 535.769C177.177 539.57 173.246 543.266 168.928 546.437C165.696 548.81 163.813 550.928 166.224 555.034C166.886 556.161 166.597 558.307 165.94 559.565C165.586 560.241 163.516 559.982 162.237 560.227C161.484 560.371 160.762 560.676 160.025 560.909L159.585 560.913C159.585 560.913 159.183 560.735 158.911 560.223C157.724 559.502 156.81 559.293 155.897 559.084C155.897 559.084 155.981 559.058 155.839 558.763C154.431 558.006 153.165 557.543 151.899 557.08C151.899 557.08 151.973 557.027 151.861 556.826C151.447 556.459 151.145 556.294 150.843 556.129C150.843 556.129 150.929 556.155 150.786 555.889C150.051 555.452 149.46 555.282 148.868 555.112C148.868 555.112 148.948 555.049 148.847 554.845C148.441 554.472 148.137 554.303 147.832 554.134C147.832 554.134 147.963 554.106 147.843 553.884C147.415 553.502 147.107 553.341 146.8 553.18C146.8 553.18 146.898 553.084 146.757 552.846C146.011 552.431 145.407 552.253 144.803 552.076C143.202 550.453 141.601 548.83 139.948 546.524C139.186 544.947 138.475 544.054 137.765 543.161C137.765 543.161 137.816 543.092 137.772 542.868C137.443 542.448 137.156 542.252 136.87 542.056C136.87 542.056 136.928 542.093 136.899 542.112Z" fill="#FF8275"/>
<path d="M288.074 534.035C289.88 531.96 292.036 530.093 293.416 527.765C295.901 523.57 297.633 518.921 300.197 514.783C305.268 506.599 310.578 498.556 316.064 490.645C317.187 489.025 319.517 488.242 321.64 487.466C321.654 495.857 321.228 503.855 321.043 511.858C320.989 514.214 321.619 516.586 321.936 518.951C321.958 525.672 321.98 532.392 321.561 539.667C319.732 543.586 318.445 546.944 321.85 549.949C321.891 550.417 321.932 550.886 321.569 551.768C319.375 554.061 319.116 555.72 321.847 556.95C322.519 561.263 320.624 563.109 316.32 563.062C307.508 562.964 298.693 563.023 289.402 562.636C288.573 561.863 288.221 561.472 287.869 561.081C287.869 561.081 287.884 561.05 287.933 560.577C288.013 551.414 288.044 542.725 288.074 534.035Z" fill="#FF8493"/>
<path d="M800.776 480.847C797.427 486.22 794.415 491.445 791.092 497.208C790.683 496.5 789.218 495.089 789.151 493.614C789.024 490.856 789.757 488.066 790.044 485.28C790.442 481.426 790.469 477.505 791.221 473.726C791.661 471.518 793.136 469.492 794.267 467.452C795.789 464.702 797.428 462.018 799.017 459.305C799.651 458.224 800.029 456.782 800.961 456.124C804.952 453.309 805.937 449.738 803.927 445.037C812.345 436.646 822.605 433.245 834.523 434.914C837.683 435.357 839.151 436.848 839.09 440.156C838.959 447.292 838.927 454.435 839.095 461.569C839.179 465.172 837.66 466.696 834.181 466.887C829.068 467.168 823.965 467.635 818.212 467.749C816.044 468.272 814.52 469.068 812.997 469.865C812.997 469.865 812.579 470.013 811.99 470.023C810.608 470.708 809.814 471.382 809.02 472.056C806.385 474.937 803.749 477.818 800.776 480.847Z" fill="#16C6E7"/>
<path d="M477.836 142.49C479.102 148.717 473.659 151.18 470.348 154.781C462.585 163.225 454.371 171.255 446.645 179.73C443.238 183.467 444.406 187.158 448.794 189.327C454.558 192.177 460.262 195.148 466.083 198.413C454.439 194.176 442.976 188.615 430.9 185.265C416.862 181.371 402.279 179.454 387.954 176.57C386.189 176.214 384.559 175.188 383 173.704C416.431 168.43 448.728 160.895 477.836 142.49Z" fill="#FF8368"/>
<path d="M663.05 537.125C664.848 537.018 666.792 536.41 668.418 536.887C676.738 539.328 683.955 536.309 691.417 533.124C685.799 538.305 678.73 539.331 671.446 539.736C668.839 545.69 666.561 551.9 663.446 557.656C661.321 561.583 663.198 562.558 666.208 562.902C669.325 563.259 672.574 563.363 675.647 562.858C677.569 562.543 679.815 561.304 680.965 559.768C683.516 556.363 685.619 552.591 687.628 548.821C690.435 543.555 692.99 538.153 695.818 532.48C694.348 532.57 693.109 532.647 691.869 532.723C694.324 530.217 696.779 527.711 700.011 525.088C708.603 524.981 716.425 525.201 724.228 524.911C727.79 524.779 730.322 525.569 731.795 528.902C720.273 550.561 702.669 563.285 677.889 564.957C666.576 565.72 655.357 564.72 644.624 559.802C647.687 560.103 650.827 560.948 654.021 561.444C655.285 561.64 657.511 561.482 657.871 560.766C661.38 553.8 664.586 546.681 667.978 539.392C665.617 538.306 664.334 537.715 663.05 537.125Z" fill="#3BBAE5"/>
<path d="M364.134 467.169C363.205 466.034 362.39 464.946 361.576 463.858C361.131 463.607 360.686 463.356 360.241 463.105C364.821 457.098 369.234 450.951 374.087 445.175C375.427 443.581 378.259 443.334 380.061 442.002C381.141 441.205 381.553 439.503 382.218 437.833C383.578 438.063 384.986 438.669 386.825 439.819C387.939 440.545 388.621 440.726 389.304 440.907C396.365 443.894 400.162 450.118 404.634 456.005C405.737 457.179 406.489 458.366 407.24 459.553C406.741 459.407 406.242 459.262 405.743 459.116C402.373 463.963 398.716 468.639 395.707 473.701C392.007 479.925 388.939 486.522 385.365 492.827C384.762 493.89 382.983 494.286 381.078 494.997C380.017 495.011 379.625 495.016 379.232 495.022C378.384 484.56 375.854 474.917 366.014 468.116C365.244 467.404 364.844 467.232 364.443 467.06C364.443 467.06 364.249 467.215 364.134 467.169Z" fill="#FF8493"/>
<path d="M634.314 710.199C635.576 711.172 637.572 712.77 637.322 713.291C634.874 718.399 631.853 723.232 629.389 728.332C626.625 734.052 624.222 739.949 621.751 745.807C619.913 750.163 618.103 754.539 616.519 758.992C615.954 760.58 616.088 762.417 615.834 764.783C610.909 766.789 605.385 769.039 599.787 771.641C596.968 772.714 594.223 773.434 590.98 773.907C590.282 773.387 590.021 773.199 589.703 772.69C591.773 766.769 593.789 761.231 595.922 755.737C597.906 750.626 600.432 745.685 601.959 740.447C603.81 734.099 602.961 733.325 596.471 733.002C610.037 727.188 623.039 720.441 634.314 710.199Z" fill="#16C6E7"/>
<path d="M469.333 750.247C463.547 745.737 457.76 741.227 451.964 736.281C451.489 735.614 451.023 735.383 450.558 735.151C449.685 734.362 448.812 733.572 447.816 732.142C447.902 730.716 447.907 729.785 448.35 729.165C454.475 720.588 460.566 711.983 466.927 703.582C467.95 702.231 470.244 701.843 471.95 701.009C478.214 706.643 484.477 712.278 490.768 718.637C490.244 720.908 489.99 722.656 489.094 723.965C483.488 732.15 477.765 740.256 471.996 748.328C471.394 749.171 470.234 749.617 469.333 750.247Z" fill="#D295BC"/>
<path d="M672.974 506.956C682.126 506.967 691.281 506.861 700.429 507.056C703.374 507.119 704.934 506.259 705.886 503.395C709.932 491.215 715.382 479.483 716.198 466.333C716.404 463.011 718.714 459.82 720.146 456.176C727.507 463.109 730.681 472.505 732.717 482.186C734.161 489.053 734.565 496.184 734.878 503.223C735.018 506.376 733.765 508.978 729.311 508.942C700.894 508.71 672.475 508.75 643.714 508.271C644.939 507.568 646.504 507.078 648.075 507.059C656.374 506.959 664.674 506.978 672.974 506.956Z" fill="#3BBAE5"/>
<path d="M469.56 750.516C470.234 749.617 471.394 749.171 471.996 748.328C477.765 740.256 483.488 732.15 489.094 723.965C489.99 722.656 490.244 720.908 490.853 718.949C498.363 722.422 505.814 726.309 513.588 730.771C513.291 733.619 513.087 736.123 511.971 738.117C508.984 743.452 505.572 748.547 502.395 753.776C500.12 757.52 497.951 761.328 495.735 765.107C487.086 760.333 478.437 755.56 469.56 750.516Z" fill="#AF9FCB"/>
<path d="M420.599 694.22C423.812 690 426.923 685.646 430.332 681.539C436.09 674.604 442.036 667.825 447.93 660.95C448.469 661.864 449.327 663.318 450.528 664.887C450.872 665.001 450.832 665.036 450.783 665.422C451.575 667.549 452.416 669.289 453.257 671.029C455.723 675.793 458.188 680.558 460.356 685.703C457.966 687.708 455.4 688.979 453.866 691.024C448.9 697.643 444.547 704.729 439.475 711.259C437.182 714.212 436.394 716.882 437.542 720.277C432.713 713.422 427.883 706.567 423.092 699.276C422.951 698.611 422.771 698.381 422.591 698.152C422.591 698.152 422.666 698.106 422.649 697.831C422.281 697.085 421.93 696.612 421.579 696.139C421.579 696.139 421.662 696.117 421.645 695.84C421.278 695.088 420.927 694.614 420.577 694.141C420.577 694.141 420.631 694.198 420.599 694.22Z" fill="#FD879C"/>
<path d="M288.049 533.564C288.044 542.725 288.013 551.414 287.95 560.573C287.5 559.592 286.727 558.143 286.717 556.689C286.443 518.732 286.238 480.776 286.052 442.819C286.023 437.037 286.842 436.256 292.72 436.217C299.046 436.175 305.373 436.179 311.699 436.221C317.636 436.261 318.723 437.38 318.839 443.135C318.889 445.614 319.087 448.091 319.616 450.721C318.193 452.753 318.193 452.753 315.312 448.079C312.379 451.722 309.688 455.027 307.044 458.369C306.136 459.517 305.519 460.942 304.475 461.928C299.292 466.824 293.928 471.531 288.848 476.527C288.009 477.351 288.044 479.282 288.04 480.703C287.996 498.166 288.019 515.629 288.049 533.564Z" fill="#FF8275"/>
<path d="M496.055 765.26C497.951 761.328 500.12 757.52 502.395 753.776C505.572 748.547 508.984 743.452 511.971 738.117C513.087 736.124 513.291 733.619 513.852 730.975C519.909 732.464 526.024 734.324 532.58 736.719C536.223 738.998 536.146 741.04 534.408 744.119C530.589 750.884 526.904 757.772 523.872 764.911C522.424 768.321 521.72 771.706 517.479 772.489C510.444 770.131 503.41 767.772 496.055 765.26Z" fill="#79ABDB"/>
<path d="M474.303 561.552C480.734 550.402 487.425 539.525 494.201 528.7C495.328 526.9 496.758 525.273 498.164 523.667C502.249 519.001 504.845 513.771 504.942 507.13C505.512 523.618 505.718 540.38 506.001 557.141C506.055 560.351 505.08 562.163 501.482 562.093C492.52 561.917 483.554 561.915 474.303 561.552Z" fill="#D295BC"/>
<path d="M596.27 732.998C602.961 733.325 603.81 734.099 601.959 740.447C600.432 745.685 597.906 750.626 595.922 755.737C593.789 761.231 591.773 766.769 589.405 772.714C588.633 773.459 588.161 773.778 587.246 774.096C580.614 774.644 574.427 775.19 567.164 775.832C568.338 773.641 569.104 772.141 569.933 770.677C571.806 767.368 573.653 764.042 575.613 760.785C580.459 752.73 580.725 742.496 587.694 735.46C587.858 735.377 588.022 735.293 588.666 735.447C589.994 735.226 590.845 734.767 591.695 734.309C592.111 734.186 592.527 734.064 593.424 734.162C594.503 733.975 595.101 733.566 595.7 733.158C595.7 733.158 596.068 732.993 596.27 732.998Z" fill="#1CC6E8"/>
<path d="M617.029 539.377C625.284 537.443 628.304 530.381 631.947 524.062C633.646 521.115 634.967 517.924 636.188 514.74C636.865 512.974 636.985 510.994 637.697 509.064C639.424 517.801 644.114 524.632 650.796 530.997C649.201 534.94 647.357 538.199 645.769 541.577C643.309 546.811 641.024 552.126 638.665 557.407C629.402 554.042 622.927 547.29 617.029 539.377Z" fill="#66AFDE"/>
<path d="M437.583 720.255C436.394 716.882 437.182 714.212 439.475 711.259C444.547 704.729 448.9 697.643 453.866 691.024C455.4 688.979 457.966 687.708 460.448 686.041C460.838 685.999 460.807 686.043 460.783 686.345C461.103 687.12 461.446 687.592 461.789 688.065C461.789 688.065 461.725 688.103 461.834 688.307C462.223 688.698 462.504 688.886 462.785 689.073C462.785 689.073 462.714 689.09 462.752 689.396C463.229 690.142 463.669 690.583 464.108 691.023C464.372 691.111 464.56 691.282 464.733 692.082C465.258 693.092 465.722 693.557 466.187 694.021C467.993 696.158 469.8 698.295 471.779 700.721C470.244 701.843 467.95 702.231 466.927 703.582C460.566 711.983 454.475 720.588 448.349 729.165C447.907 729.785 447.902 730.716 447.67 731.885C446.016 730.594 444.386 728.921 442.63 726.631C442.215 725.723 441.926 725.432 441.638 725.141C441.638 725.141 441.71 725.124 441.582 724.913C441.179 724.519 440.903 724.334 440.627 724.15C440.627 724.15 440.684 724.098 440.544 723.883C440.071 723.504 439.738 723.34 439.406 723.176C439.126 723.092 438.915 722.921 438.709 722.147C438.306 721.132 437.967 720.637 437.628 720.141C437.628 720.141 437.624 720.234 437.583 720.255Z" fill="#E092B5"/>
<path d="M250.009 481.995C250.006 480.281 250.004 478.568 250.003 475.957C250.004 464.191 250.004 453.321 250.004 441.982C247.161 443.426 245.172 444.204 243.436 445.363C238.169 448.879 231.242 450.123 228.284 456.895C227.59 458.484 225.383 460.104 223.646 460.405C219.886 461.056 219.999 463.327 219.954 466.166C219.745 479.12 219.376 492.073 219.064 505.026C217.55 510.247 216.035 515.468 214.173 520.799C218.092 511.03 218.098 500.604 217.998 490.108C217.849 474.482 217.96 458.853 217.984 443.224C217.993 436.707 218.491 436.245 225.193 436.238C232.01 436.23 238.835 436.441 245.64 436.166C250.485 435.97 252.107 438.094 252.059 442.647C251.925 455.448 251.983 468.25 251.602 481.522C250.828 481.993 250.418 481.994 250.009 481.995Z" fill="#FF8368"/>
<path d="M663.641 433.066C669.865 433.881 675.661 434.654 682.893 435.619C679.248 443.9 675.858 451.602 672.423 459.404C669.821 459.878 667.136 460.367 663.981 461.381C656.468 463.273 650.801 466.962 646.076 472.242C647.664 467.374 649.137 462.466 650.868 457.65C653.342 450.767 656.006 443.953 658.589 437.109C658.167 436.623 657.746 436.138 657.324 435.652C652.656 436.748 647.987 437.843 642.886 438.93C649.373 436.956 656.293 434.99 663.641 433.066Z" fill="#66AFDE"/>
<path d="M672.989 506.587C664.674 506.978 656.374 506.959 648.075 507.059C646.505 507.078 644.939 507.568 643.263 508.19C641.726 508.664 640.297 508.789 638.443 508.976C640.673 502.552 643.818 496.16 642.485 488.38C655.621 487.997 668.296 488.026 680.971 488.056C682.082 493.579 678.814 497.297 675.726 501.175C674.554 502.646 673.896 504.525 672.989 506.587Z" fill="#66AFDE"/>
<path d="M638.699 557.408C641.024 552.126 643.309 546.811 645.769 541.577C647.357 538.199 649.201 534.94 650.978 531.27C654.796 532.903 658.565 534.895 662.693 537.006C664.334 537.715 665.617 538.306 667.978 539.392C664.586 546.681 661.38 553.8 657.871 560.766C657.511 561.482 655.285 561.64 654.02 561.444C650.827 560.948 647.687 560.103 644.291 559.656C643.24 559.619 642.424 559.325 641.239 558.575C640.18 557.882 639.491 557.645 638.801 557.409C638.801 557.409 638.733 557.409 638.699 557.408Z" fill="#50B6E3"/>
<path d="M560.691 739.196C561.46 739.154 562.229 739.112 563.341 739.358C563.685 739.646 563.668 740.104 563.401 740.333C561.368 744.995 559.915 749.586 557.766 753.825C553.957 761.338 549.725 768.637 545.299 776.039C544.186 776.057 543.443 776.061 542.429 775.786C538.994 775.016 535.83 774.525 532.681 773.664C534.996 768.769 537.383 764.287 539.577 759.712C542.682 753.237 545.644 746.694 549.093 740.155C551.454 740.45 553.42 741.137 555.319 740.986C557.145 740.84 558.903 739.827 560.691 739.196Z" fill="#50B6E3"/>
<path d="M548.667 740.179C545.644 746.694 542.682 753.237 539.577 759.712C537.383 764.287 534.996 768.769 532.257 773.676C530.4 774.091 528.982 774.122 527.563 774.153C524.404 773.75 521.245 773.348 517.782 772.718C521.72 771.706 522.424 768.321 523.872 764.911C526.904 757.772 530.589 750.884 534.408 744.119C536.146 741.04 536.223 738.998 532.891 736.886C536.949 737.151 541.135 737.785 545.462 738.836C546.625 739.562 547.646 739.871 548.667 740.179Z" fill="#66AFDE"/>
<path d="M160.373 561.049C160.762 560.676 161.484 560.371 162.237 560.227C163.516 559.982 165.586 560.241 165.94 559.565C166.597 558.307 166.886 556.161 166.224 555.034C163.813 550.928 165.696 548.81 168.928 546.437C173.246 543.266 177.178 539.57 181.665 535.769C179.795 534.372 178.555 533.445 177.186 532.183C185.842 534.135 194.61 535.796 203.553 531.008C202.421 534.98 199.261 537.127 195.365 538.812C190.132 541.074 185.11 543.824 180.002 546.373C179.408 546.669 178.866 547.22 178.252 547.304C172.753 548.055 172.168 551.117 173.639 555.839C174.134 557.428 172.968 559.535 172.427 562.026C181.293 562.026 190.255 562.026 199.661 562.055C194.975 563.023 189.795 564.933 184.724 564.679C176.685 564.276 168.719 562.426 160.373 561.049Z" fill="#FF8372"/>
<path d="M542.7 776.065C543.443 776.061 544.186 776.057 545.766 776.067C549.427 776.085 552.273 775.862 555.065 776.154C558.335 776.495 560.447 775.265 561.871 772.437C566.669 762.909 571.538 753.418 576.236 743.842C576.804 742.684 576.493 741.095 576.562 740.104C571.884 740.104 567.776 740.104 563.668 740.104C563.668 740.104 563.685 739.646 563.722 739.42C571.484 737.99 579.208 736.787 587.313 735.522C580.725 742.496 580.459 752.73 575.613 760.784C573.653 764.042 571.806 767.368 569.933 770.677C569.104 772.141 568.338 773.641 567.164 775.832C574.427 775.19 580.614 774.643 587.253 774.306C587.704 774.515 587.714 774.934 587.714 774.934C573.116 777.865 558.4 778.391 543.16 776.798C542.725 776.508 542.7 776.065 542.7 776.065Z" fill="#16C6E7"/>
<path d="M250.004 482.464C250.418 481.994 250.828 481.993 251.545 481.986C251.886 507.336 251.919 532.692 251.894 558.51C251.226 557.315 250.094 555.659 250.086 553.997C249.968 530.31 250.003 506.621 250.004 482.464Z" fill="#FF8275"/>
<path d="M379.169 495.486C379.625 495.017 380.017 495.011 380.703 495.004C380.994 516.712 380.99 538.422 380.963 560.606C380.564 559.888 379.877 558.699 379.859 557.501C379.559 536.984 379.342 516.466 379.169 495.486Z" fill="#FF8283"/>
<path d="M562.979 14.1652C562.094 12.5798 561.04 10.6952 560.333 8.68868C559.753 7.04251 559.583 5.25135 558.629 3.56391C557.194 10.8597 555.821 18.1686 554.28 25.4417C553.922 27.1336 552.99 28.7041 551.993 30.4221C553.676 20.3481 555.688 10.1826 557.7 0.0169945C558.455 0.0113295 559.21 0.005665 559.966 0C560.964 4.60445 561.963 9.20891 562.979 14.1652Z" fill="#FF8368"/>
<path d="M551.176 32.8998C551.608 33.4188 552.375 34.4399 552.152 35.1496C548.708 46.0993 545.156 57.0154 541.553 67.9141C541.265 68.7855 540.419 69.4724 539.499 70.3703C543.127 58.0827 547.089 45.6699 551.176 32.8998Z" fill="#FF8368"/>
<path d="M112.439 560.924C112.096 551.695 112.084 542.264 112.156 532.36C112.573 532.206 113.202 532.527 113.198 532.841C113.094 542.135 112.928 551.428 112.439 560.924Z" fill="#FF8368"/>
<path d="M321.977 518.488C321.619 516.586 320.989 514.214 321.043 511.858C321.228 503.855 321.654 495.857 321.995 487.429C322.909 485.595 323.817 484.189 324.909 482.972C320.94 494.507 322.282 506.337 321.977 518.488Z" fill="#FF8275"/>
<path d="M731.887 528.508C730.322 525.569 727.79 524.779 724.228 524.911C716.425 525.201 708.603 524.981 700.31 524.946C701.2 524.594 702.565 523.997 703.938 523.979C711.736 523.881 719.537 523.999 727.334 523.877C730.408 523.828 732.107 524.861 731.887 528.508Z" fill="#16C6E7"/>
<path d="M336.384 468.954C337.763 467.725 339.411 465.388 341.235 465.242C347.207 464.764 353.244 465.083 359.153 465.392C351.286 464.437 343.714 464.547 336.384 468.954Z" fill="#FF8275"/>
<path d="M442.923 628.708C431.955 628.96 420.664 628.877 409.084 628.505C420.063 628.269 431.332 628.321 442.923 628.708Z" fill="#FF8368"/>
<path d="M538.968 70.6738C536.735 76.0338 534.248 81.6289 531.412 87.2986C533.612 81.8851 536.163 76.3971 538.968 70.6738Z" fill="#FF8368"/>
<path d="M220.17 561.429C229.652 561.065 239.4 561.043 249.623 561.04C248.923 561.407 247.747 562.058 246.573 562.055C237.861 562.033 229.149 561.882 220.17 561.429Z" fill="#FF8368"/>
<path d="M500.179 223.098C500.883 222.706 501.683 222.626 502.885 222.544C505.583 225.699 507.881 228.856 510.135 232.374C506.819 229.627 503.548 226.518 500.179 223.098Z" fill="#FF8275"/>
<path d="M542.429 775.786C542.7 776.065 542.725 776.508 542.742 776.73C537.831 776.244 532.902 775.537 527.769 774.491C528.982 774.122 530.4 774.091 532.243 774.047C535.83 774.525 538.994 775.016 542.429 775.786Z" fill="#3BBAE5"/>
<path d="M549.093 740.155C547.646 739.871 546.625 739.562 545.81 739.048C550.6 738.929 555.183 739.015 560.229 739.148C558.903 739.827 557.146 740.84 555.319 740.986C553.42 741.137 551.455 740.45 549.093 740.155Z" fill="#3BBAE5"/>
<path d="M642.276 702.157C643.449 702.217 644.361 702.385 645.959 702.679C644.531 704.743 643.41 706.362 641.641 708.918C641.149 706.769 640.922 705.775 640.689 704.411C641.128 703.449 641.572 702.857 642.276 702.157Z" fill="#16C6E7"/>
<path d="M321.899 549.503C318.445 546.944 319.732 543.586 321.494 540.135C321.895 543.05 321.922 546.053 321.899 549.503Z" fill="#FF8275"/>
<path d="M210.644 525.068C211.387 528.236 210.864 530.727 206.112 529.927C207.235 528.344 208.802 526.794 210.644 525.068Z" fill="#FF8372"/>
<path d="M218.86 550.494C219.209 553.421 219.591 556.798 219.943 560.635C219.573 557.712 219.233 554.327 218.86 550.494Z" fill="#FF8368"/>
<path d="M610.897 528.408C611.897 529.824 612.929 531.592 613.936 533.732C612.916 532.323 611.922 530.542 610.897 528.408Z" fill="#66AFDE"/>
<path d="M321.897 556.544C319.116 555.72 319.375 554.061 321.506 552.117C321.881 553.413 321.913 554.776 321.897 556.544Z" fill="#FF8275"/>
<path d="M813.339 469.845C814.521 469.068 816.044 468.272 817.78 467.729C816.556 468.597 815.119 469.211 813.339 469.845Z" fill="#1CC6E8"/>
<path d="M453.138 670.668C452.416 669.289 451.575 667.549 450.759 665.412C451.529 666.779 452.274 668.543 453.138 670.668Z" fill="#FF8493"/>
<path d="M486.37 211.882C487.531 212.38 488.867 213.148 490.213 214.288C488.997 213.823 487.771 212.987 486.37 211.882Z" fill="#FF8275"/>
<path d="M200.404 562.118C201.52 561.436 203.005 560.736 204.868 560.063C203.756 560.76 202.265 561.43 200.404 562.118Z" fill="#FF8372"/>
<path d="M564.104 20.1828C563.641 19.339 563.195 18.1558 563.01 16.7598C563.554 17.6458 563.838 18.7446 564.104 20.1828Z" fill="#FF8368"/>
<path d="M176.92 531.636C175.849 531.431 174.588 530.953 173.243 530.121C174.35 530.298 175.54 530.831 176.92 531.636Z" fill="#FF8368"/>
<path d="M529.948 88.6301C529.734 89.6922 529.255 90.9554 528.423 92.3069C528.607 91.2072 529.145 90.0192 529.948 88.6301Z" fill="#FF8368"/>
<path d="M588.032 774.968C587.714 774.933 587.704 774.515 587.697 774.305C588.161 773.778 588.633 773.459 589.403 773.117C590.021 773.198 590.282 773.387 590.59 773.878C589.915 774.4 589.133 774.701 588.032 774.968Z" fill="#0AC8E8"/>
<path d="M152.1 557.346C153.165 557.543 154.431 558.006 155.823 558.805C154.734 558.631 153.518 558.121 152.1 557.346Z" fill="#FF8368"/>
<path d="M480.882 140.476C480.419 141.079 479.659 141.786 478.525 142.452C478.961 141.8 479.774 141.191 480.882 140.476Z" fill="#FF8368"/>
<path d="M591.384 734.328C590.845 734.767 589.994 735.226 588.942 735.457C589.518 734.936 590.296 734.642 591.384 734.328Z" fill="#16C6E7"/>
<path d="M614.983 536.352C615.6 536.816 616.285 537.585 616.955 538.721C616.311 538.277 615.681 537.467 614.983 536.352Z" fill="#66AFDE"/>
<path d="M137.783 543.508C138.475 544.054 139.186 544.947 139.873 546.224C139.167 545.691 138.484 544.773 137.783 543.508Z" fill="#FF8368"/>
<path d="M527.245 255.924C527.863 256.39 528.546 257.161 529.189 258.304C528.537 257.86 527.923 257.045 527.245 255.924Z" fill="#FF8493"/>
<path d="M381.151 561.364C382.418 561.166 383.917 561.271 385.672 561.64C384.413 561.825 382.899 561.745 381.151 561.364Z" fill="#FF8283"/>
<path d="M483.923 138.432C483.454 139.049 482.683 139.771 481.532 140.454C481.975 139.789 482.799 139.163 483.923 138.432Z" fill="#FF8368"/>
<path d="M490.883 133.335C490.398 133.968 489.612 134.733 488.43 135.47C488.883 134.784 489.732 134.125 490.883 133.335Z" fill="#FF8368"/>
<path d="M600.502 107.132C599.861 106.667 599.096 105.905 598.343 104.754C599.03 105.188 599.704 106.011 600.502 107.132Z" fill="#FF8275"/>
<path d="M212.686 522.09C212.493 522.901 212.048 523.894 211.24 524.908C211.396 524.043 211.915 523.158 212.686 522.09Z" fill="#FF8368"/>
<path d="M809.324 471.966C809.815 471.382 810.609 470.708 811.77 470.044C811.3 470.661 810.464 471.269 809.324 471.966Z" fill="#1CC6E8"/>
<path d="M333.367 471.096C333.825 470.489 334.569 469.76 335.685 469.035C335.256 469.684 334.454 470.328 333.367 471.096Z" fill="#FF8275"/>
<path d="M595.405 733.131C595.101 733.566 594.503 733.974 593.749 734.127C594.099 733.616 594.604 733.36 595.405 733.131Z" fill="#16C6E7"/>
<path d="M484.169 210.076C484.789 210.181 485.491 210.571 486.21 211.308C485.569 211.224 484.909 210.792 484.169 210.076Z" fill="#FF8275"/>
<path d="M493.191 217.019C493.795 217.176 494.494 217.624 495.203 218.429C494.57 218.294 493.928 217.802 493.191 217.019Z" fill="#FF8275"/>
<path d="M206.298 559.952C206.562 559.479 207.112 559.007 207.827 558.764C207.523 559.313 207.054 559.634 206.298 559.952Z" fill="#FF8372"/>
<path d="M329.496 475.115C329.646 474.506 330.087 473.807 330.884 473.097C330.756 473.733 330.271 474.378 329.496 475.115Z" fill="#FF8275"/>
<path d="M638.935 557.638C639.491 557.645 640.18 557.882 640.945 558.419C640.37 558.435 639.72 558.151 638.935 557.638Z" fill="#66AFDE"/>
<path d="M156.119 559.338C156.81 559.293 157.724 559.502 158.775 560.05C158.055 560.123 157.198 559.858 156.119 559.338Z" fill="#FF8368"/>
<path d="M109.368 561.986C109.827 561.637 110.629 561.338 111.775 561.073C111.317 561.416 110.515 561.726 109.368 561.986Z" fill="#FF8368"/>
<path d="M609.6 525.406C609.978 525.831 610.467 526.583 610.937 527.712C610.516 527.304 610.114 526.518 609.6 525.406Z" fill="#66AFDE"/>
<path d="M466.046 693.73C465.722 693.557 465.258 693.092 464.78 692.271C465.146 692.423 465.525 692.931 466.046 693.73Z" fill="#FD879C"/>
<path d="M287.762 561.367C288.221 561.472 288.573 561.863 288.94 562.537C288.522 562.431 288.088 562.043 287.762 561.367Z" fill="#FF8275"/>
<path d="M149.023 555.379C149.46 555.282 150.051 555.452 150.758 555.924C150.308 556.032 149.743 555.839 149.023 555.379Z" fill="#FF8368"/>
<path d="M497.385 220.817C497.784 220.76 498.364 220.948 499.072 221.425C498.655 221.497 498.11 221.28 497.385 220.817Z" fill="#FF8275"/>
<path d="M498.112 457.668C497.804 457.503 497.436 457.034 497.066 456.245C497.394 456.404 497.723 456.884 498.112 457.668Z" fill="#FD879C"/>
<path d="M461.789 687.759C461.446 687.592 461.103 687.12 460.759 686.333C461.103 686.497 461.446 686.976 461.789 687.759Z" fill="#FD879C"/>
<path d="M463.98 690.743C463.669 690.583 463.229 690.142 462.769 689.363C463.116 689.505 463.484 689.984 463.98 690.743Z" fill="#FD879C"/>
<path d="M471.323 201.926C471.757 201.826 472.352 201.988 473.079 202.445C472.635 202.556 472.06 202.372 471.323 201.926Z" fill="#FF8368"/>
<path d="M420.608 694.443C420.927 694.614 421.278 695.088 421.627 695.879C421.297 695.712 420.967 695.229 420.608 694.443Z" fill="#FF8493"/>
<path d="M421.607 696.442C421.93 696.612 422.281 697.085 422.635 697.873C422.303 697.707 421.969 697.226 421.607 696.442Z" fill="#FF8493"/>
<path d="M616.291 124.219C615.877 124.3 615.281 124.123 614.563 123.647C614.997 123.552 615.554 123.757 616.291 124.219Z" fill="#FF8283"/>
<path d="M437.589 720.456C437.967 720.637 438.306 721.132 438.644 721.95C438.279 721.771 437.914 721.271 437.589 720.456Z" fill="#FD879C"/>
<path d="M719.225 454.57C718.819 454.426 718.439 453.968 718.051 453.186C718.445 453.327 718.847 453.792 719.225 454.57Z" fill="#3BBAE5"/>
<path d="M389.055 440.664C388.621 440.726 387.939 440.545 387.042 440.063C387.486 439.982 388.146 440.201 389.055 440.664Z" fill="#FF8283"/>
<path d="M450.69 735.361C451.023 735.383 451.489 735.614 451.781 736C451.289 736.036 451.027 735.841 450.69 735.361Z" fill="#E092B5"/>
<path d="M511.116 233.948C511.517 234.094 511.891 234.557 512.296 235.341C511.915 235.196 511.502 234.73 511.116 233.948Z" fill="#FF8275"/>
<path d="M522.127 247.972C522.468 248.134 522.844 248.599 523.222 249.388C522.87 249.233 522.516 248.754 522.127 247.972Z" fill="#FF8493"/>
<path d="M524.026 250.946C524.347 251.111 524.777 251.564 525.219 252.358C524.866 252.211 524.501 251.723 524.026 250.946Z" fill="#FF8493"/>
<path d="M525.985 253.952C526.314 254.098 526.754 254.531 527.206 255.3C526.844 255.171 526.469 254.705 525.985 253.952Z" fill="#FF8493"/>
<path d="M529.16 258.921C529.488 259.082 529.853 259.541 530.219 260.316C529.879 260.16 529.538 259.689 529.16 258.921Z" fill="#FF8493"/>
<path d="M144.979 552.339C145.407 552.253 146.011 552.431 146.739 552.913C146.293 553.012 145.723 552.807 144.979 552.339Z" fill="#FF8368"/>
<path d="M885.022 510.723C884.806 511.092 884.591 511.224 884.377 511.355C884.42 510.996 884.463 510.636 884.688 510.156C884.869 510.036 885.024 510.485 885.022 510.723Z" fill="#03C8E8"/>
<path d="M469.375 200.859C469.783 200.789 470.371 200.964 471.097 201.426C470.675 201.51 470.115 201.306 469.375 200.859Z" fill="#FF8368"/>
<path d="M474.417 203.819C474.808 203.8 475.395 204.01 476.103 204.52C475.687 204.563 475.149 204.306 474.417 203.819Z" fill="#FF8368"/>
<path d="M170.185 526.587C169.83 526.437 169.455 525.985 169.079 525.213C169.441 525.357 169.803 525.821 170.185 526.587Z" fill="#FF8368"/>
<path d="M974.357 508.814C974.579 508.602 975.116 508.481 975.803 508.539C975.526 508.78 975.099 508.843 974.357 508.814Z" fill="#3BBAE5"/>
<path d="M482.33 208.908C482.762 208.806 483.35 208.973 484.06 209.435C483.616 209.546 483.051 209.361 482.33 208.908Z" fill="#FF8275"/>
<path d="M645.272 146.12C644.835 146.207 644.237 146.032 643.511 145.556C643.959 145.456 644.535 145.657 645.272 146.12Z" fill="#FF8493"/>
<path d="M466.287 198.992C466.743 198.864 467.34 199.013 468.056 199.463C467.594 199.599 467.011 199.433 466.287 198.992Z" fill="#FF8368"/>
<path d="M613.907 534.339C614.223 534.51 614.577 534.979 614.941 535.762C614.616 535.596 614.28 535.117 613.907 534.339Z" fill="#66AFDE"/>
<path d="M490.356 214.875C490.777 214.79 491.36 214.966 492.068 215.435C491.634 215.531 491.076 215.333 490.356 214.875Z" fill="#FF8275"/>
<path d="M499.172 221.943C499.432 221.835 499.73 222.009 500.105 222.439C499.859 222.539 499.535 222.382 499.172 221.943Z" fill="#FF8275"/>
<path d="M439.552 723.419C439.738 723.34 440.071 723.503 440.532 723.92C440.34 724.002 440.019 723.832 439.552 723.419Z" fill="#FD879C"/>
<path d="M527.891 92.4763C527.989 92.7315 527.783 93.0585 527.312 93.5266C527.227 93.2945 527.407 92.9213 527.891 92.4763Z" fill="#FF8368"/>
<path d="M530.878 87.4246C530.992 87.6789 530.83 87.9847 530.419 88.3898C530.314 88.1514 530.458 87.8137 530.878 87.4246Z" fill="#FF8368"/>
<path d="M496.047 454.661C495.795 454.772 495.517 454.591 495.146 454.173C495.376 454.081 495.699 454.225 496.047 454.661Z" fill="#FD879C"/>
<path d="M171.111 527.618C170.874 527.709 170.573 527.529 170.197 527.086C170.43 526.998 170.738 527.172 171.111 527.618Z" fill="#FF8368"/>
<path d="M422.625 698.387C422.771 698.381 422.951 698.611 422.987 698.949C422.842 699.059 422.659 698.622 422.625 698.387Z" fill="#FF8493"/>
<path d="M440.677 724.422C440.903 724.334 441.179 724.519 441.554 724.937C441.344 725.012 441.036 724.852 440.677 724.422Z" fill="#FD879C"/>
<path d="M441.678 725.458C441.926 725.432 442.215 725.723 442.57 726.325C442.331 726.349 442.024 726.061 441.678 725.458Z" fill="#FD879C"/>
<path d="M173.14 529.57C172.879 529.679 172.575 529.511 172.191 529.083C172.44 528.98 172.768 529.136 173.14 529.57Z" fill="#FF8368"/>
<path d="M468.187 199.945C468.435 199.835 468.74 199.999 469.149 200.41C468.916 200.511 468.58 200.365 468.187 199.945Z" fill="#FF8368"/>
<path d="M473.226 202.898C473.447 202.805 473.747 202.972 474.156 203.379C473.945 203.465 473.625 203.311 473.226 202.898Z" fill="#FF8368"/>
<path d="M510.185 232.928C510.452 232.812 510.744 232.989 511.119 233.416C510.871 233.518 510.54 233.37 510.185 232.928Z" fill="#FF8275"/>
<path d="M521.183 246.767C521.389 246.712 521.689 246.931 522.08 247.417C521.874 247.469 521.576 247.254 521.183 246.767Z" fill="#FF8493"/>
<path d="M213.657 520.935C213.75 521.181 213.569 521.472 213.144 521.864C213.061 521.637 213.221 521.309 213.657 520.935Z" fill="#FF8368"/>
<path d="M979.258 508.777C979.163 508.451 979.387 508.257 979.915 508.133C980.036 508.449 979.822 508.683 979.258 508.777Z" fill="#3BBAE5"/>
<path d="M486.019 136.554C486.067 136.792 485.834 137.059 485.338 137.399C485.296 137.175 485.517 136.879 486.019 136.554Z" fill="#FF8368"/>
<path d="M147.89 554.406C148.137 554.303 148.441 554.472 148.839 554.895C148.603 554.992 148.276 554.835 147.89 554.406Z" fill="#FF8368"/>
<path d="M150.902 556.399C151.145 556.294 151.447 556.459 151.85 556.87C151.621 556.967 151.291 556.818 150.902 556.399Z" fill="#FF8368"/>
<path d="M875.061 551.208C875.266 551.06 875.536 551.214 875.895 551.643C875.662 551.874 875.376 551.738 875.061 551.208Z" fill="#0AC8E8"/>
<path d="M136.934 542.328C137.157 542.252 137.443 542.448 137.797 542.903C137.577 542.975 137.287 542.788 136.934 542.328Z" fill="#FF8368"/>
<path d="M364.622 467.332C364.843 467.232 365.243 467.404 365.805 467.864C365.578 467.97 365.19 467.787 364.622 467.332Z" fill="#FF8283"/>
<path d="M329.106 475.806C328.841 475.804 328.687 475.615 328.532 475.426C328.636 475.348 328.74 475.269 329.046 475.189C329.248 475.186 329.216 475.619 329.106 475.806Z" fill="#FF8275"/>
<path d="M492.178 215.941C492.438 215.835 492.736 216.009 493.115 216.439C492.87 216.536 492.544 216.379 492.178 215.941Z" fill="#FF8275"/>
<path d="M412.276 561.901C412.171 561.513 412.39 561.391 412.805 561.642C412.894 561.765 412.491 561.919 412.276 561.901Z" fill="#FF8283"/>
<path d="M172.107 528.616C171.87 528.708 171.569 528.53 171.184 528.093C171.415 528.006 171.729 528.176 172.107 528.616Z" fill="#FF8368"/>
<path d="M112.215 531.478C111.917 531.615 111.608 531.467 111.26 531.048C111.548 530.915 111.875 531.053 112.215 531.478Z" fill="#FF8368"/>
<path d="M720.143 455.588C719.875 455.707 719.571 455.533 719.196 455.095C719.453 454.986 719.78 455.141 720.143 455.588Z" fill="#3BBAE5"/>
<path d="M621.628 129.179C621.426 129.276 621.044 129.122 620.507 128.695C620.718 128.59 621.083 128.759 621.628 129.179Z" fill="#FF8283"/>
<path d="M497.025 455.69C496.804 455.777 496.521 455.594 496.142 455.171C496.352 455.094 496.658 455.257 497.025 455.69Z" fill="#FD879C"/>
<path d="M620.343 128.199C620.124 128.248 619.829 128.026 619.458 127.529C619.676 127.48 619.971 127.704 620.343 128.199Z" fill="#FF8283"/>
<path d="M204.73 530.015C204.792 530.251 204.58 530.517 204.118 530.859C204.064 530.638 204.261 530.342 204.73 530.015Z" fill="#FF8372"/>
<path d="M462.7 688.82C462.504 688.886 462.223 688.698 461.844 688.271C462.036 688.211 462.326 688.389 462.7 688.82Z" fill="#FD879C"/>
<path d="M146.83 553.463C147.107 553.341 147.415 553.502 147.791 553.927C147.527 554.042 147.194 553.894 146.83 553.463Z" fill="#FF8368"/>
<path d="M481.208 207.916C481.455 207.819 481.753 207.995 482.146 208.423C481.913 208.512 481.586 208.351 481.208 207.916Z" fill="#FF8275"/>
<path d="M901.078 465.125C921.078 454.811 942.907 464.025 950.346 486.735C928.965 486.735 907.99 486.735 886.553 486.753C887.318 477.084 893.584 470.865 901.078 465.125Z" fill="#FBFBFB"/>
<path d="M219.405 504.977C219.376 492.073 219.745 479.121 219.954 466.166C219.999 463.327 219.886 461.056 223.646 460.405C225.383 460.104 227.59 458.484 228.284 456.895C231.242 450.123 238.169 448.879 243.436 445.363C245.172 444.204 247.161 443.426 250.004 441.982C250.004 453.321 250.004 464.191 250.002 475.529C248.233 477.964 246.566 480.034 244.671 481.87C242.609 483.867 240.245 485.552 238.174 487.541C234.539 491.032 231.087 494.714 227.443 498.195C224.98 500.547 222.318 502.692 219.405 504.977Z" fill="#FF8275"/>
<path d="M646.012 472.432C650.801 466.963 656.468 463.273 663.83 461.773C683.41 459.04 696.948 467.451 702.476 486.157C681.053 486.648 660.077 486.711 639.101 486.773C640.63 483.053 642.159 479.332 643.918 475.093C644.147 474.575 644.188 474.127 644.188 474.127C644.188 474.127 644.137 474.041 644.378 474.015C644.849 473.686 645.08 473.384 645.312 473.082C645.591 473.022 645.803 472.869 646.012 472.432Z" fill="#FBFBFB"/>
<path d="M639.253 487.077C660.077 486.711 681.053 486.648 702.492 486.499C701.549 486.945 700.156 487.89 698.735 487.936C693.133 488.116 687.522 488.013 681.442 488.036C668.296 488.026 655.621 487.997 642.479 487.979C641.143 487.787 640.274 487.584 639.253 487.077Z" fill="#3BBAE5"/>
<path d="M645.033 473.153C645.08 473.384 644.849 473.686 644.335 474.041C644.286 473.804 644.521 473.514 645.033 473.153Z" fill="#66AFDE"/>
<path d="M643.997 474.15C644.188 474.127 644.147 474.575 644.042 474.774C643.795 474.784 643.647 474.6 643.525 474.399C643.517 474.385 643.707 474.251 643.997 474.15Z" fill="#66AFDE"/>
<path d="M157.456 457.564C158.776 455.949 159.831 454.585 160.885 453.221C160.513 458.728 160.772 463.564 155.592 467.757C150.639 471.765 146.295 476.05 140.073 478.176C138.248 478.8 137.084 481.36 134.214 482.928C133.744 477.278 133.274 471.628 132.929 467.48C141.636 464.011 149.413 460.912 157.456 457.564Z" fill="#FF8372"/>
<path d="M691.893 532.752C693.109 532.647 694.348 532.57 695.818 532.48C692.99 538.153 690.435 543.554 687.628 548.821C685.618 552.591 683.516 556.363 680.965 559.768C679.815 561.304 677.569 562.543 675.647 562.858C672.574 563.363 669.324 563.259 666.208 562.902C663.198 562.558 661.321 561.583 663.446 557.656C666.561 551.899 668.839 545.69 671.446 539.736C678.73 539.33 685.799 538.305 691.793 533.118C691.879 532.759 691.918 532.781 691.893 532.752Z" fill="#50B6E3"/>
<path d="M563.401 740.333C567.776 740.104 571.884 740.104 576.562 740.104C576.493 741.095 576.804 742.684 576.236 743.842C571.538 753.418 566.668 762.909 561.871 772.437C560.447 775.265 558.335 776.495 555.065 776.154C552.273 775.862 549.427 776.085 546.137 776.053C549.725 768.637 553.957 761.338 557.766 753.825C559.915 749.586 561.368 744.995 563.401 740.333Z" fill="#3BBAE5"/>
</svg>
